<?xml version="1.0" encoding="utf-8"?>
<!-- Generator: Adobe Illustrator 16.0.0, SVG Export Plug-In . SVG Version: 6.00 Build 0)  -->
<!DOCTYPE svg PUBLIC "-//W3C//DTD SVG 1.1//EN" "http://www.w3.org/Graphics/SVG/1.1/DTD/svg11.dtd">
<svg version="1.1" id="Capa_1" xmlns="http://www.w3.org/2000/svg" xmlns:xlink="http://www.w3.org/1999/xlink" x="0px" y="0px"
	 width="16px" height="16px" viewBox="0 0 16 16" enable-background="new 0 0 16 16" xml:space="preserve">
<path d="M9.366,8l5.352-5.351c0.377-0.377,0.377-0.99,0-1.367c-0.38-0.376-0.99-0.376-1.367,0L8,6.633L2.649,1.282
	c-0.377-0.376-0.989-0.376-1.367,0c-0.376,0.377-0.376,0.99,0,1.367L6.633,8l-5.351,5.351c-0.376,0.377-0.376,0.991,0,1.367
	c0.377,0.377,0.99,0.377,1.367,0L8,9.365l5.351,5.353c0.377,0.377,0.987,0.377,1.367,0c0.377-0.376,0.377-0.99,0-1.367L9.366,8z"/>
</svg>
