<?xml version="1.0" encoding="utf-8"?>
<!-- Generator: Adobe Illustrator 16.0.0, SVG Export Plug-In . SVG Version: 6.00 Build 0)  -->
<!DOCTYPE svg PUBLIC "-//W3C//DTD SVG 1.1//EN" "http://www.w3.org/Graphics/SVG/1.1/DTD/svg11.dtd">
<svg version="1.1" id="Capa_1" xmlns="http://www.w3.org/2000/svg" xmlns:xlink="http://www.w3.org/1999/xlink" x="0px" y="0px"
	 width="16px" height="16px" viewBox="0 0 16 16" enable-background="new 0 0 16 16" xml:space="preserve">
<g>
	<path d="M15.199,7.2H0.8C0.359,7.2,0,7.559,0,8c0,0.44,0.359,0.8,0.8,0.8h14.399C15.641,8.8,16,8.44,16,8
		C16,7.559,15.641,7.2,15.199,7.2z"/>
	<path d="M0.8,4h14.399C15.641,4,16,3.642,16,3.2s-0.359-0.8-0.801-0.8H0.8C0.359,2.4,0,2.759,0,3.2S0.359,4,0.8,4z"/>
	<path d="M15.199,12H0.8C0.359,12,0,12.359,0,12.801c0,0.44,0.359,0.799,0.8,0.799h14.399c0.441,0,0.801-0.358,0.801-0.799
		C16,12.359,15.641,12,15.199,12z"/>
</g>
</svg>
