<svg xmlns="http://www.w3.org/2000/svg" width="100" height="30" viewBox="0 0 100 30"><g fill="#466fbd"><path d="M0 13.544h2.75c.285 0 .522.065.713.194.19.13.315.3.373.514l1.938 7.362c.064.24.13.494.194.766.064.27.113.556.145.853.065-.304.136-.59.213-.857s.15-.52.223-.76l2.286-7.363c.058-.18.182-.344.373-.49.19-.145.42-.218.692-.218h.97c.283 0 .517.063.702.19.184.125.312.298.382.518l2.267 7.362c.07.226.146.467.223.722.078.255.146.528.204.82.052-.285.105-.557.16-.815.055-.258.11-.5.17-.727l1.937-7.362c.05-.188.174-.352.368-.495.194-.142.426-.213.698-.213h2.577L16.198 27.66h-2.964l-2.654-8.748c-.045-.136-.092-.284-.14-.446-.05-.16-.096-.333-.142-.513-.045.18-.092.352-.14.513-.048.162-.096.31-.14.446L7.323 27.66H4.36L0 13.544zM29.675 19.357v1.327c0 .73-.316 1.095-1.045 1.095h-3.392v3.36h4.84s.5-.014.733.22c.25.25.22.685.22.685v1.615h-9.086V13.544h9.087v1.602s0 .358-.28.637c-.294.295-.664.28-.664.28h-4.848v3.294M32.898 27.66V13.544h5.193c.976 0 1.806.09 2.49.27.686.182 1.244.437 1.677.766.433.33.748.73.945 1.2.197.473.295 1 .295 1.58 0 .316-.045.622-.136.916s-.23.57-.425.83c-.194.257-.443.49-.746.7-.305.21-.67.394-1.096.548.93.226 1.618.593 2.063 1.1.446.507.67 1.158.67 1.952 0 .6-.117 1.16-.35 1.676-.232.517-.573.967-1.02 1.352-.45.384-1.004.685-1.663.9-.658.217-1.41.326-2.257.326h-5.64zm3.275-8.177h1.705c.36 0 .688-.025.978-.078.29-.05.538-.142.74-.27.205-.13.36-.308.466-.534.106-.225.16-.51.16-.852 0-.336-.042-.615-.126-.838-.084-.223-.213-.402-.388-.538-.174-.135-.396-.232-.663-.29-.27-.06-.586-.088-.955-.088h-1.918v3.49zm0 2.19v3.516h2.305c.433 0 .787-.056 1.06-.166s.49-.252.646-.426c.155-.174.26-.37.32-.59.058-.22.087-.443.087-.67 0-.257-.033-.49-.1-.697-.07-.206-.186-.38-.35-.522-.165-.142-.383-.252-.654-.33-.27-.077-.614-.116-1.027-.116h-2.287zM55.434 24.007c.078 0 .155.015.233.043.077.03.15.08.223.15l1.298 1.366c-.568.743-1.28 1.303-2.136 1.68-.856.378-1.87.567-3.037.567-1.072 0-2.033-.182-2.882-.547-.85-.365-1.57-.87-2.16-1.51-.59-.644-1.045-1.406-1.36-2.287-.317-.883-.476-1.84-.476-2.874 0-1.053.18-2.02.542-2.9.36-.883.866-1.643 1.515-2.283.65-.64 1.425-1.137 2.33-1.492.904-.354 1.902-.532 2.993-.532.53 0 1.03.047 1.497.14.468.094.906.223 1.313.388s.78.362 1.124.59c.342.23.646.484.91.762L56.26 16.75c-.072.09-.156.173-.253.247-.097.074-.232.11-.407.11-.116 0-.227-.024-.33-.076-.104-.05-.213-.114-.33-.188l-.382-.242c-.14-.087-.304-.168-.494-.242-.19-.074-.414-.137-.668-.19-.255-.05-.554-.077-.896-.077-.594 0-1.137.106-1.627.316-.49.21-.913.51-1.265.9-.352.392-.626.865-.823 1.42-.197.555-.295 1.18-.295 1.87 0 .723.098 1.366.295 1.928.197.562.465 1.035.804 1.42.338.383.734.676 1.186.876.452.2.937.3 1.453.3.296 0 .567-.014.813-.043.245-.03.473-.08.683-.15.21-.07.41-.163.6-.276.19-.112.383-.252.577-.42.078-.064.162-.118.252-.16s.182-.063.28-.063zM78.684 13.564c.097.013.184.037.262.073.077.035.15.085.223.15.07.065.15.152.24.262l6.705 8.476c-.026-.27-.045-.534-.058-.79-.013-.255-.02-.496-.02-.722v-7.47h2.887V27.66H87.22c-.253 0-.466-.04-.64-.116-.175-.078-.343-.22-.504-.426l-6.656-8.41c.02.247.036.487.048.723.013.237.02.458.02.665v7.566H76.6V13.545h1.726c.14 0 .26.007.358.02zM100 13.544v1.602s.033.486-.2.72c-.232.23-.695.197-.695.197h-4.9v3.584h4.825v1.535s.01.47-.25.73-.777.253-.777.253h-3.797v5.493h-3.294V13.544H100z"/></g><path fill="#F04A23" d="M76.906 5.813c-.062-.196-.1-.4-.18-.59.42-.322.84-.7 1.202-1.11-.136-.28-.295-.55-.474-.806-.558.09-1.108.252-1.605.45-.148-.145-.28-.306-.442-.43-.153-.14-.318-.26-.49-.375.16-.524.258-1.045.32-1.605-.275-.143-.56-.274-.854-.372-.4.406-.746.84-1.038 1.31-.2-.054-.405-.07-.608-.097-.205-.013-.412-.023-.617-.012-.177-.5-.41-1.013-.685-1.486-.308.048-.612.108-.91.203-.086.552-.103 1.13-.07 1.667-.188.08-.37.18-.548.28-.17.113-.35.218-.505.354-.445-.31-.924-.578-1.43-.8-.228.212-.423.456-.62.697.274.513.57.968.928 1.393-.104.178-.2.36-.277.55-.09.185-.14.387-.208.58-.53.014-1.077.078-1.625.192-.042.31-.087.62-.085.932.502.255 1.038.447 1.565.58.01.206.064.406.095.61.062.195.1.4.18.588-.42.323-.84.7-1.203 1.11.136.282.296.55.474.807.558-.09 1.108-.252 1.605-.45.148.144.28.305.442.43.153.14.318.26.49.375-.16.524-.258 1.045-.32 1.605.276.143.56.274.855.372.4-.406.746-.84 1.038-1.31.2.054.404.07.608.097.205.014.412.024.617.013.178.5.41 1.012.687 1.486.307-.05.61-.11.908-.204.086-.552.104-1.13.07-1.667.19-.08.37-.18.55-.28.17-.114.348-.22.504-.355.444.31.923.578 1.428.8.23-.212.425-.456.62-.697-.273-.512-.568-.967-.927-1.392.105-.177.2-.36.278-.55.092-.186.14-.388.208-.58.53-.015 1.077-.078 1.625-.193.043-.31.088-.62.086-.93-.503-.255-1.04-.448-1.566-.58-.01-.207-.064-.407-.094-.61zm-3.09 3.542c-.516.31-1.145.456-1.746.403-.598-.06-1.195-.295-1.648-.705-.466-.396-.778-.94-.925-1.533-.128-.6-.085-1.222.16-1.783.23-.566.663-1.038 1.174-1.354.518-.31 1.147-.456 1.748-.403.598.06 1.195.295 1.648.705.466.396.778.938.925 1.533.13.598.086 1.222-.16 1.782-.228.567-.662 1.04-1.173 1.355z"/><path fill="#466fbd" d="M73.273 20.573l-.08-.78c.515-.206 1.026-.444 1.53-.716-.094-.652-.352-1.277-.542-1.91-.57.046-1.134.123-1.682.23l-.374-.69c-.117-.235-.318-.413-.475-.62.32-.45.617-.927.892-1.427-.418-.514-.986-.88-1.485-1.31-.448.333-.888.713-1.29 1.096l-.69-.375c-.22-.146-.488-.177-.732-.268.024-.55.018-1.11-.022-1.678-.626-.235-1.305-.2-1.96-.29-.195.506-.358 1.045-.488 1.6l-.78.08c-.262.015-.52.05-.766.147-.275-.47-.583-.934-.92-1.386-.652.158-1.225.496-1.806.817.12.55.252 1.06.44 1.594l-.603.5c-.2.168-.416.318-.567.535-.485-.25-.993-.47-1.52-.668-.456.488-.77 1.072-1.076 1.662.394.397.794.76 1.226 1.1l-.233.75c-.06.253-.192.492-.195.757-.54.056-1.084.144-1.63.264-.105.66-.105 1.317 0 1.976.546.122 1.09.21 1.63.264.003.265.135.503.195.757l.232.75c-.432.34-.83.704-1.226 1.1.306.59.62 1.175 1.075 1.663.53-.197 1.037-.42 1.522-.667.15.217.37.368.568.536l.604.5c-.19.533-.323 1.043-.442 1.593.58.32 1.154.66 1.805.817.34-.452.646-.916.92-1.387.247.096.504.132.767.148l.78.08c.13.554.294 1.092.49 1.6.653-.092 1.333-.056 1.958-.29.04-.568.047-1.128.022-1.678.244-.092.513-.123.733-.27l.69-.374c.4.383.842.764 1.29 1.097.5-.43 1.066-.797 1.484-1.31-.274-.5-.572-.976-.892-1.426.156-.208.358-.386.475-.622l.374-.69c.547.108 1.11.185 1.683.23.19-.632.448-1.257.542-1.91-.504-.27-1.015-.51-1.53-.715l.08-.78zm-3.615 2.595c-.534.763-1.34 1.316-2.208 1.61-.875.285-1.86.285-2.734 0-.868-.293-1.674-.847-2.207-1.61-.56-.75-.836-1.66-.85-2.595.014-.934.29-1.846.85-2.595.532-.764 1.338-1.317 2.206-1.61.875-.285 1.86-.285 2.734 0 .868.293 1.674.846 2.208 1.61.557.75.834 1.66.85 2.595-.015.934-.293 1.846-.85 2.595z"/></svg>
