<svg style="display: none;"><symbol viewBox="0 0 16 16" id="icon-arrow-double-down"><title>arrow-double-down</title> <g> <path d="M10.979,8.182l-2.997,2.65l-2.996-2.65c-0.196-0.196-0.515-0.196-0.711,0c-0.196,0.196-0.196,0.515,0,0.71l3.345,2.959
		c0.1,0.101,0.231,0.148,0.362,0.146C8.113,12,8.244,11.953,8.344,11.854l3.346-2.959c0.195-0.196,0.195-0.516,0-0.711
		C11.493,7.987,11.174,7.986,10.979,8.182z"/> <path d="M7.619,8.266c0.1,0.1,0.231,0.148,0.362,0.146c0.131,0.002,0.263-0.046,0.362-0.146l3.345-2.959
		c0.199-0.196,0.199-0.514,0.002-0.711c-0.196-0.196-0.516-0.196-0.711,0l-2.997,2.65l-2.996-2.65C4.789,4.4,4.47,4.4,4.274,4.596
		c-0.196,0.196-0.196,0.515,0,0.711L7.619,8.266z"/> </g> </symbol><symbol viewBox="0 0 16 16" id="icon-arrow-download"><title>arrow-download</title> <g> <polygon points="8,12 13,7 10,7 10,1 6,1 6.018,7 3,7 	"/> <polygon points="12,12 12,14 4,14 4,12 2,12 2,14 2,16 14,16 14,12 	"/> </g> </symbol><symbol viewBox="0 0 16 16" id="icon-close"><title>close</title> <path d="M9.366,8l5.352-5.351c0.377-0.377,0.377-0.99,0-1.367c-0.38-0.376-0.99-0.376-1.367,0L8,6.633L2.649,1.282
	c-0.377-0.376-0.989-0.376-1.367,0c-0.376,0.377-0.376,0.99,0,1.367L6.633,8l-5.351,5.351c-0.376,0.377-0.376,0.991,0,1.367
	c0.377,0.377,0.99,0.377,1.367,0L8,9.365l5.351,5.353c0.377,0.377,0.987,0.377,1.367,0c0.377-0.376,0.377-0.99,0-1.367L9.366,8z"/> </symbol><symbol viewBox="0 0 16 16" id="icon-facebook-disc"><title>facebook-disc</title> <path d="M8,0C3.582,0,0,3.582,0,8s3.582,8,8,8s8-3.582,8-8C16,3.581,12.418,0,8,0z M10.068,7.999L8.757,8l-0.001,4.8H6.957V8h-1.2
	V6.346l1.2-0.001L6.955,5.371c0-1.35,0.366-2.171,1.955-2.171h1.324v1.655H9.406c-0.619,0-0.649,0.231-0.649,0.662L8.755,6.345
	h1.488L10.068,7.999z"/> </symbol><symbol viewBox="0 0 16 16" id="icon-facebook"><title>facebook</title> <path d="M9.025,5.242l0.004-1.38c0-0.719,0.049-1.104,1.08-1.104h1.906V0H9.283C6.634,0,6.024,1.369,6.024,3.618l0.003,1.624
	L4.016,5.243V8h2.011v8h2.999l0.002-8l2.723-0.001l0.292-2.757H9.025z"/> </symbol><symbol viewBox="0 0 16 16" id="icon-hamburger"><title>hamburger</title> <g> <path d="M15.199,7.2H0.8C0.359,7.2,0,7.559,0,8c0,0.44,0.359,0.8,0.8,0.8h14.399C15.641,8.8,16,8.44,16,8
		C16,7.559,15.641,7.2,15.199,7.2z"/> <path d="M0.8,4h14.399C15.641,4,16,3.642,16,3.2s-0.359-0.8-0.801-0.8H0.8C0.359,2.4,0,2.759,0,3.2S0.359,4,0.8,4z"/> <path d="M15.199,12H0.8C0.359,12,0,12.359,0,12.801c0,0.44,0.359,0.799,0.8,0.799h14.399c0.441,0,0.801-0.358,0.801-0.799
		C16,12.359,15.641,12,15.199,12z"/> </g> </symbol><symbol viewBox="0 0 16 16" id="icon-tick-disc"><title>tick-disc</title> <path d="M8.042,0c-4.418,0-8,3.582-8,8s3.582,8,8,8s8-3.582,8-8S12.46,0,8.042,0z M11.748,5.787l-3.832,5.857l-0.003,0.002
	l-0.056,0.093l-0.12,0.087l-0.031,0.021L7.51,11.93l-0.068,0.016l-0.168,0.003L7.157,11.93l-0.115-0.046l-0.096-0.038l-0.053-0.053
	l-0.026-0.016L4.636,9.714C4.352,9.451,4.335,9.008,4.597,8.725c0.262-0.283,0.705-0.301,0.989-0.039l1.615,1.494l3.375-5.159
	c0.212-0.323,0.645-0.414,0.969-0.203C11.869,5.03,11.96,5.464,11.748,5.787z"/> </symbol><symbol viewBox="0 0 16 16" id="icon-twitter-disc"><title>twitter-disc</title> <path d="M8,0C3.582,0,0,3.582,0,8s3.582,8,8,8s8-3.582,8-8C16,3.581,12.418,0,8,0z M11.98,6.204l0.006,0.255
	c0,2.604-1.981,5.604-5.604,5.604c-1.112,0-2.147-0.326-3.019-0.885c0.154,0.018,0.311,0.028,0.47,0.028
	c0.923,0,1.772-0.315,2.446-0.843c-0.862-0.016-1.589-0.586-1.84-1.368C4.56,9.018,4.682,9.029,4.81,9.029
	c0.18,0,0.354-0.023,0.519-0.068c-0.901-0.182-1.58-0.977-1.58-1.931V7.005c0.266,0.148,0.569,0.236,0.892,0.247
	C4.113,6.899,3.765,6.296,3.765,5.613c0-0.361,0.097-0.699,0.266-0.99c0.971,1.192,2.423,1.976,4.06,2.058
	C8.057,6.537,8.04,6.386,8.04,6.232c0-1.087,0.882-1.969,1.97-1.969c0.566,0,1.078,0.239,1.438,0.622
	c0.448-0.089,0.87-0.253,1.251-0.478c-0.147,0.46-0.459,0.846-0.866,1.09c0.397-0.047,0.778-0.154,1.131-0.31
	C12.7,5.581,12.365,5.928,11.98,6.204z"/> </symbol><symbol viewBox="0 0 16.002 16" id="icon-twitter"><title>twitter</title> <path d="M16.001,3.038c-0.589,0.261-1.221,0.438-1.885,0.517c0.678-0.406,1.197-1.05,1.443-1.815
	c-0.635,0.376-1.338,0.649-2.086,0.797C12.875,1.898,12.022,1.5,11.078,1.5c-1.813,0-3.283,1.47-3.283,3.282
	c0,0.257,0.029,0.508,0.085,0.748C5.152,5.393,2.733,4.086,1.114,2.1C0.831,2.584,0.67,3.148,0.67,3.75
	c0,1.139,0.58,2.144,1.46,2.732C1.592,6.464,1.086,6.316,0.643,6.07v0.041c0,1.59,1.132,2.917,2.633,3.219
	C3.001,9.404,2.711,9.445,2.411,9.445c-0.212,0-0.417-0.021-0.618-0.06c0.418,1.304,1.63,2.253,3.066,2.28
	c-1.123,0.88-2.539,1.404-4.077,1.404c-0.265,0-0.526-0.016-0.783-0.045C1.452,13.956,3.177,14.5,5.031,14.5
	c6.038,0,9.34-5.002,9.34-9.34L14.36,4.735C15.004,4.274,15.562,3.696,16.001,3.038z"/> </symbol></svg>